<?xml version="1.0" encoding="UTF-8"?>
<svg width="16px" height="16px" viewBox="0 0 16 16" version="1.1" xmlns="http://www.w3.org/2000/svg" xmlns:xlink="http://www.w3.org/1999/xlink">
    <!-- Generator: sketchtool 63.1 (101010) - https://sketch.com -->
    <title>62A4A960-831C-4F8C-ACE2-43455D107077</title>
    <desc>Created with sketchtool.</desc>
    <g id="Asset-Artboard-Page" stroke="none" stroke-width="1" fill="none" fill-rule="evenodd">
        <g id="Icon/Filter-Icon/Delete" transform="translate(0.409231, 0.000000)" fill="#FFFFFF">
            <g id="trash-2" transform="translate(1.926154, 1.000000)">
                <path d="M12.1794302,1.41331055 L8.28982512,1.41331055 L8.28982512,0.701806641 C8.28982512,0.314824219 7.98650885,2.27373675e-13 7.61371616,2.27373675e-13 L4.90631244,2.27373675e-13 C4.53349149,2.27373675e-13 4.23020348,0.314824219 4.23020348,0.701806641 L4.23020348,1.41328125 L0.340570104,1.41328125 C0.152463702,1.41328125 0,1.57130859 0,1.7662793 C0,1.96125 0.152463702,2.11927734 0.340570104,2.11927734 L0.971793571,2.11927734 L1.40221946,13.7324414 C1.42856284,14.4432129 1.98677671,15 2.67308949,15 L9.84696738,15 C10.5332802,15 11.091494,14.4431836 11.1177809,13.7324121 L11.5482068,2.11924805 L12.1794302,2.11924805 C12.3674801,2.11924805 12.5200003,1.9612207 12.5200003,1.76625 C12.5200003,1.57133789 12.3675366,1.41331055 12.1794302,1.41331055 Z M4.91131532,0.705966797 L7.60868479,0.705966797 L7.60868479,1.41328125 L4.91131532,1.41328125 L4.91131532,0.705966797 L4.91131532,0.705966797 Z M10.4371775,13.7053418 C10.4249386,14.035459 10.1656881,14.2940332 9.8469389,14.2940332 L2.67308943,14.2940332 C2.3543685,14.2940332 2.09511803,14.0354297 2.08285084,13.7053125 L1.65344251,2.11927734 L10.8666141,2.11927734 L10.4371775,13.7053418 Z" id="Shape"></path>
            </g>
        </g>
    </g>
</svg>