<svg xmlns="http://www.w3.org/2000/svg" xmlns:xlink="http://www.w3.org/1999/xlink" viewBox="0 0 101.18 26"><defs><style>.cls-1{fill:none;}.cls-2{clip-path:url(#clip-path);}.cls-3{clip-path:url(#clip-path-2);}.cls-4{fill:#fff;}.cls-5{clip-path:url(#clip-path-3);}</style><clipPath id="clip-path" transform="translate(-236 -201)"><path class="cls-1" d="M288.73,221.05h-9.08V207h3.2v11.28h5.89V221ZM244.2,209.76v8.48h2.51a4.26,4.26,0,0,0,0-8.48ZM261.5,222h0l-8-6.23a7,7,0,0,1-6.82,5.27H241V207h5.71a7,7,0,0,1,6.82,5.27l8-6.23,2.27,1.78-7.64,6,1.71,1.33,7.64-6,2.28,1.78-4,3.11-3.65,2.86,1.71,1.33,7.64-6V207h3.2v11.28h5.88V221h-9.08v-5.26Z"/></clipPath><clipPath id="clip-path-2" transform="translate(-236 -201)"><rect class="cls-1" width="573" height="389"/></clipPath><clipPath id="clip-path-3" transform="translate(-236 -201)"><path class="cls-1" d="M300.79,221.05h-8.66l-.19-.2V207.16l.19-.2h8.66l.2.2v.6l-.2.2h-7.45l-.2.2v5l.2.2h7.05l.2.2v.6l-.2.2h-7.05l-.2.2v5.24l.2.2h7.45l.2.2v.6l-.2.2Zm10.46,0h-1l-.2-.2-5-11.68h-.2v11.67l-.2.2h-.8l-.2-.2V207.15l.2-.2h1.41l.2.2,5.23,12.28h.2l5.24-12.28.2-.2h1.4l.2.2v13.69l-.2.2h-.8l-.2-.2V209.17h-.2l-5.05,11.67-.19.2Zm15.5.2a6.26,6.26,0,0,1-4.5-1.82,8.62,8.62,0,0,1,0-10.87,6.27,6.27,0,0,1,4.5-1.81c3,0,5.06,1.58,5.43,4.23l-.19.2h-.81L331,211a3.9,3.9,0,0,0-1.36-2.37,4.64,4.64,0,0,0-2.88-.86,4.86,4.86,0,0,0-3.75,1.62,8,8,0,0,0,0,9.26,4.88,4.88,0,0,0,3.75,1.61l.4,0a3.87,3.87,0,0,0,3.84-3.44l.19-.2H332l.19.2a4.77,4.77,0,0,1-1.81,3.34,5.83,5.83,0,0,1-3.62,1.08Z"/></clipPath></defs><title>Asset 2</title><g id="Layer_2" data-name="Layer 2"><g id="Layer_1-2" data-name="Layer 1"><g class="cls-2"><g class="cls-3"><rect class="cls-4" width="57.74" height="26"/></g></g><g class="cls-5"><g class="cls-3"><rect class="cls-4" x="50.94" y="0.75" width="50.25" height="24.49"/></g></g></g></g></svg>