<?xml version="1.0" encoding="UTF-8"?>
<svg width="24px" height="20px" viewBox="0 0 24 20" version="1.1" xmlns="http://www.w3.org/2000/svg" xmlns:xlink="http://www.w3.org/1999/xlink">
    <!-- Generator: sketchtool 63.1 (101010) - https://sketch.com -->
    <title>98165AC5-140D-4242-8DFF-23837A2553B3</title>
    <desc>Created with sketchtool.</desc>
    <g id="Set-Targets" stroke="none" stroke-width="1" fill="none" fill-rule="evenodd">
        <g id="01_MB1_No-Data" transform="translate(-70.000000, -94.000000)" fill="#41B6E6" fill-rule="nonzero">
            <g id="Title" transform="translate(69.965120, 80.000000)">
                <path d="M21.7141985,21.6448804 L12.0541985,12.0348804 L2.39419852,21.6448804 C2.08293275,21.8819103 1.9384847,22.2786919 2.02451505,22.6603571 C2.1105454,23.0420223 2.41125121,23.3384628 2.79410637,23.4190322 C3.17696154,23.4996017 3.57163929,23.3495004 3.80419852,23.0348804 L11.0541985,15.8448804 L11.0541985,34.9748804 C11.0541985,35.5271652 11.5019138,35.9748804 12.0541985,35.9748804 C12.6064833,35.9748804 13.0541985,35.5271652 13.0541985,34.9748804 L13.0541985,15.8448804 L20.3041985,23.0348804 C20.6963207,23.4242412 21.3298377,23.4220026 21.7191985,23.0298804 C22.1085592,22.6377582 22.1063207,22.0042412 21.7141985,21.6148804 L21.7141985,21.6448804 Z" id="Path" transform="translate(12.004880, 24.004880) rotate(-90.000000) translate(-12.004880, -24.004880) "></path>
            </g>
        </g>
    </g>
</svg>